<svg width="21" height="20" fill="none" xmlns="http://www.w3.org/2000/svg"><path d="M16.945 13.383a7.436 7.436 0 01-3.263 3.315 7.255 7.255 0 01-4.559.694 7.33 7.33 0 01-4.072-2.2 7.556 7.556 0 01-1.99-4.233 7.613 7.613 0 01.87-4.608 7.42 7.42 0 013.39-3.18 7.25 7.25 0 014.584-.506c1.542.334 2.805 1.094 3.85 2.296.126.133.612.672 1.017 1.484" stroke="#4295E4" stroke-linecap="round" stroke-linejoin="round"/><path d="M13.057 6.51l4.2.757.742-4.275" stroke="#4295E4" stroke-linecap="round" stroke-linejoin="round"/></svg>