<svg width="82" height="82" fill="none" xmlns="http://www.w3.org/2000/svg"><mask id="path-1-inside-1_507_3342" fill="#fff"><path d="M66.562 46.06l-.947-.947a.347.347 0 01-.061-.376l.024-.06c.053-.127.2-.154.313-.154h1.339c4.7 0 8.524-3.857 8.524-8.6v-2.66a8.34 8.34 0 00-2.522-6.009 8.526 8.526 0 00-6.002-2.43h-1.34c-.053 0-.227-.11-.317-.328l-.015-.035c-.06-.142-.037-.294.057-.387l.947-.947a8.469 8.469 0 002.497-6.027 8.469 8.469 0 00-2.497-6.027l-1.881-1.88a8.465 8.465 0 00-6.027-2.498 8.465 8.465 0 00-6.027 2.497l-.948.947c-.093.094-.244.116-.382.06l-.054-.023c-.127-.053-.154-.2-.154-.313v-1.34C51.09 3.823 47.232 0 42.49 0h-2.66c-4.742 0-8.6 3.824-8.6 8.523v1.34c0 .114-.026.26-.15.31l-.053.023c-.141.058-.293.037-.387-.057l-.947-.948a8.468 8.468 0 00-6.027-2.496 8.468 8.468 0 00-6.027 2.496l-1.88 1.882a8.466 8.466 0 00-2.497 6.027c0 2.276.886 4.417 2.496 6.027l.948.947c.093.093.115.245.059.382l-.024.054c-.052.127-.198.154-.311.154h-1.34c-4.7 0-8.524 3.858-8.524 8.6v2.66a8.34 8.34 0 002.522 6.01 8.525 8.525 0 006.002 2.43h1.34c.052 0 .227.11.317.326l.015.037c.059.141.037.293-.056.386l-.948.948c-3.323 3.323-3.323 8.73 0 12.054l1.881 1.881c3.323 3.323 8.731 3.323 12.054 0l.947-.948c.094-.093.246-.115.382-.059l.055.024c.127.052.153.198.153.311v1.34c0 4.7 3.858 8.523 8.6 8.523h2.66c4.742 0 8.6-3.823 8.6-8.523v-1.34c0-.113.027-.26.154-.311l.05-.021c.14-.059.293-.037.386.056l.947.948c3.323 3.323 8.731 3.323 12.054 0l1.881-1.881c3.324-3.323 3.324-8.731 0-12.054zm-5.477 3.583l.947.948a2.12 2.12 0 010 2.994l-1.88 1.881a2.12 2.12 0 01-2.995 0l-.947-.947c-1.934-1.934-4.829-2.5-7.378-1.442l-.034.014c-2.5 1.032-4.114 3.479-4.114 6.233v1.34c0 1.148-1.005 2.117-2.194 2.117h-2.66c-1.189 0-2.193-.97-2.193-2.117v-1.34c0-2.754-1.616-5.201-4.115-6.233l-.038-.016a6.825 6.825 0 00-2.621-.525 6.709 6.709 0 00-4.753 1.968l-.947.948a2.12 2.12 0 01-2.994 0l-1.881-1.881a2.12 2.12 0 010-2.994l.948-.948c1.933-1.933 2.5-4.828 1.439-7.383l-.012-.028c-1.056-2.557-3.56-4.275-6.233-4.275h-1.34c-1.187 0-2.117-.893-2.117-2.033v-2.66c0-1.19.97-2.194 2.117-2.194h1.34c2.754 0 5.2-1.615 6.238-4.126l.01-.026a6.737 6.737 0 00-1.443-7.374l-.947-.947c-.4-.4-.62-.932-.62-1.497a2.1 2.1 0 01.62-1.497l1.881-1.881c.4-.4.932-.62 1.497-.62a2.1 2.1 0 011.497.62l.948.947c1.934 1.933 4.828 2.5 7.378 1.441l.033-.014c2.5-1.032 4.115-3.479 4.115-6.233v-1.34c0-1.147 1.004-2.117 2.193-2.117h2.66c1.19 0 2.194.97 2.194 2.117v1.34c0 2.754 1.615 5.201 4.117 6.235l.035.014c2.545 1.057 5.44.491 7.374-1.443l.947-.947c.4-.4.932-.62 1.497-.62.566 0 1.097.22 1.497.62l1.881 1.88c.4.4.62.932.62 1.498 0 .565-.22 1.097-.62 1.497l-.947.947c-1.934 1.934-2.5 4.828-1.442 7.378l.014.034c1.056 2.556 3.56 4.274 6.234 4.274h1.34c1.186 0 2.117.893 2.117 2.034v2.66c0 1.188-.97 2.193-2.117 2.193h-1.34c-2.754 0-5.201 1.616-6.232 4.112l-.017.041c-1.057 2.545-.491 5.44 1.443 7.373zM82 63.262v5.925C82 76.254 76.252 82 69.187 82a3.203 3.203 0 110-6.406 6.414 6.414 0 006.407-6.406v-5.926a3.203 3.203 0 116.406 0zM56.215 78.797A3.203 3.203 0 0153.012 82h-40.2C5.747 82 0 76.252 0 69.187v-5.925a3.203 3.203 0 116.406 0v5.925a6.414 6.414 0 006.407 6.407h40.199a3.203 3.203 0 013.203 3.203zM52.734 34.02a3.204 3.204 0 010 4.53l-4.92 4.92a9.549 9.549 0 01-6.795 2.814c-2.566 0-4.98-1-6.794-2.814l-4.92-4.92a3.203 3.203 0 114.53-4.53l4.136 4.137-.014-14.612a3.203 3.203 0 013.2-3.206h.003a3.203 3.203 0 013.203 3.2l.015 14.307 3.826-3.826a3.204 3.204 0 014.53 0z"/></mask><path d="M66.562 46.06l-.947-.947a.347.347 0 01-.061-.376l.024-.06c.053-.127.2-.154.313-.154h1.339c4.7 0 8.524-3.857 8.524-8.6v-2.66a8.34 8.34 0 00-2.522-6.009 8.526 8.526 0 00-6.002-2.43h-1.34c-.053 0-.227-.11-.317-.328l-.015-.035c-.06-.142-.037-.294.057-.387l.947-.947a8.469 8.469 0 002.497-6.027 8.469 8.469 0 00-2.497-6.027l-1.881-1.88a8.465 8.465 0 00-6.027-2.498 8.465 8.465 0 00-6.027 2.497l-.948.947c-.093.094-.244.116-.382.06l-.054-.023c-.127-.053-.154-.2-.154-.313v-1.34C51.09 3.823 47.232 0 42.49 0h-2.66c-4.742 0-8.6 3.824-8.6 8.523v1.34c0 .114-.026.26-.15.31l-.053.023c-.141.058-.293.037-.387-.057l-.947-.948a8.468 8.468 0 00-6.027-2.496 8.468 8.468 0 00-6.027 2.496l-1.88 1.882a8.466 8.466 0 00-2.497 6.027c0 2.276.886 4.417 2.496 6.027l.948.947c.093.093.115.245.059.382l-.024.054c-.052.127-.198.154-.311.154h-1.34c-4.7 0-8.524 3.858-8.524 8.6v2.66a8.34 8.34 0 002.522 6.01 8.525 8.525 0 006.002 2.43h1.34c.052 0 .227.11.317.326l.015.037c.059.141.037.293-.056.386l-.948.948c-3.323 3.323-3.323 8.73 0 12.054l1.881 1.881c3.323 3.323 8.731 3.323 12.054 0l.947-.948c.094-.093.246-.115.382-.059l.055.024c.127.052.153.198.153.311v1.34c0 4.7 3.858 8.523 8.6 8.523h2.66c4.742 0 8.6-3.823 8.6-8.523v-1.34c0-.113.027-.26.154-.311l.05-.021c.14-.059.293-.037.386.056l.947.948c3.323 3.323 8.731 3.323 12.054 0l1.881-1.881c3.324-3.323 3.324-8.731 0-12.054v0zm-5.477 3.583l.947.948a2.12 2.12 0 010 2.994l-1.88 1.881a2.12 2.12 0 01-2.995 0l-.947-.947c-1.934-1.934-4.829-2.5-7.378-1.442l-.034.014c-2.5 1.032-4.114 3.479-4.114 6.233v1.34c0 1.148-1.005 2.117-2.194 2.117h-2.66c-1.189 0-2.193-.97-2.193-2.117v-1.34c0-2.754-1.616-5.201-4.115-6.233l-.038-.016a6.825 6.825 0 00-2.621-.525 6.709 6.709 0 00-4.753 1.968l-.947.948a2.12 2.12 0 01-2.994 0l-1.881-1.881a2.12 2.12 0 010-2.994l.948-.948c1.933-1.933 2.5-4.828 1.439-7.383l-.012-.028c-1.056-2.557-3.56-4.275-6.233-4.275h-1.34c-1.187 0-2.117-.893-2.117-2.033v-2.66c0-1.19.97-2.194 2.117-2.194h1.34c2.754 0 5.2-1.615 6.238-4.126l.01-.026a6.737 6.737 0 00-1.443-7.374l-.947-.947c-.4-.4-.62-.932-.62-1.497a2.1 2.1 0 01.62-1.497l1.881-1.881c.4-.4.932-.62 1.497-.62a2.1 2.1 0 011.497.62l.948.947c1.934 1.933 4.828 2.5 7.378 1.441l.033-.014c2.5-1.032 4.115-3.479 4.115-6.233v-1.34c0-1.147 1.004-2.117 2.193-2.117h2.66c1.19 0 2.194.97 2.194 2.117v1.34c0 2.754 1.615 5.201 4.117 6.235l.035.014c2.545 1.057 5.44.491 7.374-1.443l.947-.947c.4-.4.932-.62 1.497-.62.566 0 1.097.22 1.497.62l1.881 1.88c.4.4.62.932.62 1.498 0 .565-.22 1.097-.62 1.497l-.947.947c-1.934 1.934-2.5 4.828-1.442 7.378l.014.034c1.056 2.556 3.56 4.274 6.234 4.274h1.34c1.186 0 2.117.893 2.117 2.034v2.66c0 1.188-.97 2.193-2.117 2.193h-1.34c-2.754 0-5.201 1.616-6.232 4.112l-.017.041c-1.057 2.545-.491 5.44 1.443 7.373v0zM82 63.262v5.925C82 76.254 76.252 82 69.187 82a3.203 3.203 0 110-6.406 6.414 6.414 0 006.407-6.406v-5.926a3.203 3.203 0 116.406 0zM56.215 78.797A3.203 3.203 0 0153.012 82h-40.2C5.747 82 0 76.252 0 69.187v-5.925a3.203 3.203 0 116.406 0v5.925a6.414 6.414 0 006.407 6.407h40.199a3.203 3.203 0 013.203 3.203zM52.734 34.02a3.204 3.204 0 010 4.53l-4.92 4.92a9.549 9.549 0 01-6.795 2.814c-2.566 0-4.98-1-6.794-2.814l-4.92-4.92a3.203 3.203 0 114.53-4.53l4.136 4.137-.014-14.612a3.203 3.203 0 013.2-3.206h.003a3.203 3.203 0 013.203 3.2l.015 14.307 3.826-3.826a3.204 3.204 0 014.53 0v0z" fill="#4295E4" stroke="#F5FAFF" stroke-width=".6" mask="url(#path-1-inside-1_507_3342)"/></svg>