<svg width="14" height="14" fill="none" xmlns="http://www.w3.org/2000/svg"><g clip-path="url(#clip0_228_4609)" fill="#4295E4"><path d="M13.598 8.522a.367.367 0 00-.367.367v3.258a1.1 1.1 0 01-1.1 1.1H1.835c-.608 0-1.1-.493-1.101-1.1V2.585c0-.608.493-1.1 1.1-1.101h3.259a.367.367 0 100-.734H1.835A1.837 1.837 0 000 2.585v9.562a1.837 1.837 0 001.835 1.835H12.13a1.837 1.837 0 001.834-1.835V8.889a.367.367 0 00-.367-.367z"/><path d="M5.738 6.59l5.358-5.357 1.728 1.728-5.358 5.357-1.728-1.727zm-.875 2.603l1.91-.53-1.38-1.38-.53 1.91zM13.302.324a.918.918 0 00-1.298 0l-.389.39 1.728 1.728.39-.39a.918.918 0 000-1.297l-.431-.43z"/></g><defs><clipPath id="clip0_228_4609"><path fill="#fff" d="M0 0h14v14H0z"/></clipPath></defs></svg>