<svg width="14" height="14" fill="none" xmlns="http://www.w3.org/2000/svg"><path d="M13.31 6.133h-.002L7.868.692a1.22 1.22 0 00-.867-.36 1.22 1.22 0 00-.868.36L.696 6.129a1.229 1.229 0 00.85 2.099h.216v4.003c0 .793.645 1.437 1.437 1.437h2.128a.39.39 0 00.39-.39v-3.139c0-.361.295-.655.656-.655h1.255c.362 0 .656.294.656.655v3.138a.39.39 0 00.39.391h2.129c.792 0 1.436-.644 1.436-1.437V8.228h.201a1.23 1.23 0 00.869-2.095zm-.554 1.183a.443.443 0 01-.316.131h-.591a.39.39 0 00-.39.39v4.394a.656.656 0 01-.656.656H9.065v-2.748c0-.792-.644-1.437-1.437-1.437H6.373a1.44 1.44 0 00-1.437 1.437v2.748H3.2a.656.656 0 01-.656-.656V7.838a.39.39 0 00-.39-.39H1.57l-.018-.002a.447.447 0 01-.307-.761l5.44-5.44a.443.443 0 01.63 0l5.438 5.438.003.003a.447.447 0 01-.001.63z" fill="#161C24"/><path d="M12.756 7.316a.443.443 0 01-.316.131h-.591a.39.39 0 00-.39.39v4.394a.656.656 0 01-.656.656H9.065v-2.748c0-.792-.644-1.437-1.437-1.437H6.373a1.44 1.44 0 00-1.437 1.437v2.748H3.2a.656.656 0 01-.656-.656V7.838a.39.39 0 00-.39-.39H1.57l-.018-.002a.447.447 0 01-.307-.761l5.44-5.44a.443.443 0 01.63 0l5.438 5.438.003.003a.447.447 0 01-.001.63z" fill="#161C24"/></svg>